{
    "asset" : {
        "generator" : "Khronos glTF Blender I/O v3.3.32",
        "version" : "2.0"
    },
    "scene" : 0,
    "scenes" : [
        {
            "name" : "Scene",
            "nodes" : [
                4
            ]
        }
    ],
    "nodes" : [
        {
            "mesh" : 0,
            "name" : "SM_Fireplace_fireplace_Fireplace_0"
        },
        {
            "children" : [
                0
            ],
            "name" : "SM_Fireplace_fireplace",
            "rotation" : [
                -0.7071068286895752,
                0,
                0,
                0.7071067094802856
            ],
            "scale" : [
                100,
                99.99999237060547,
                99.99999237060547
            ],
            "translation" : [
                -194.73574829101562,
                0,
                14.629585266113281
            ]
        },
        {
            "children" : [
                1
            ],
            "name" : "RootNode"
        },
        {
            "children" : [
                2
            ],
            "name" : "b2576bb1790a4f168d8fc5501fd8df06.fbx",
            "rotation" : [
                0.7071068286895752,
                0,
                0,
                0.7071067094802856
            ],
            "scale" : [
                0.009999999776482582,
                0.010000000707805157,
                0.010000000707805157
            ]
        },
        {
            "children" : [
                3
            ],
            "name" : "Sketchfab_model",
            "rotation" : [
                -0.7071068286895752,
                0,
                0,
                0.7071067094802856
            ]
        }
    ],
    "meshes" : [
        {
            "name" : "SM_Fireplace_fireplace_Fireplace_0",
            "primitives" : [
                {
                    "attributes" : {
                        "POSITION" : 0,
                        "NORMAL" : 1,
                        "TEXCOORD_0" : 2
                    },
                    "indices" : 3
                }
            ]
        }
    ],
    "accessors" : [
        {
            "bufferView" : 0,
            "componentType" : 5126,
            "count" : 1031,
            "max" : [
                0.9493585228919983,
                0.7119298577308655,
                2.1912126541137695
            ],
            "min" : [
                -0.9182681441307068,
                -0.6410230994224548,
                -0.0049085915088653564
            ],
            "type" : "VEC3"
        },
        {
            "bufferView" : 1,
            "componentType" : 5126,
            "count" : 1031,
            "type" : "VEC3"
        },
        {
            "bufferView" : 2,
            "componentType" : 5126,
            "count" : 1031,
            "type" : "VEC2"
        },
        {
            "bufferView" : 3,
            "componentType" : 5123,
            "count" : 2862,
            "type" : "SCALAR"
        }
    ],
    "bufferViews" : [
        {
            "buffer" : 0,
            "byteLength" : 12372,
            "byteOffset" : 0,
            "target" : 34962
        },
        {
            "buffer" : 0,
            "byteLength" : 12372,
            "byteOffset" : 12372,
            "target" : 34962
        },
        {
            "buffer" : 0,
            "byteLength" : 8248,
            "byteOffset" : 24744,
            "target" : 34962
        },
        {
            "buffer" : 0,
            "byteLength" : 5724,
            "byteOffset" : 32992,
            "target" : 34963
        }
    ],
    "buffers" : [
        {
            "byteLength" : 38716,
            "uri" : "data:application/octet-stream;base64,"
        }
    ]
}
